<svg width="41" height="46" viewBox="0 0 41 46" fill="none" xmlns="http://www.w3.org/2000/svg">
<path d="M40.956 26.5H32.3692C31.3071 28.8083 29.3713 30.6077 27 31.4512C28.9936 32.2539 32.7898 33.5222 36.7079 34.5C38.8131 32.2593 40.2936 29.4998 41 26.5H40.956Z" fill="#F04451"/>
<path d="M23.393 32.1349C20.6803 30.5511 18.1948 28.6424 16.5617 26.5C16.4822 26.9445 16.4144 27.4122 16.3558 27.8956C16.3548 27.9034 16.3539 27.9123 16.353 27.9201C16.1117 29.9282 15.9076 33.9872 16.0436 38.0975C16.1205 40.424 16.306 42.7666 16.6563 44.7623C17.1384 45.0111 18.0856 45.5 18.0856 45.5L22.3605 39.9488C22.6312 39.9771 22.904 39.9982 23.1782 40.0147C23.1881 40.0153 23.1979 40.0163 23.2078 40.0169C23.3502 40.0264 23.4926 40.0298 23.635 40.0361C23.858 40.044 24.0809 40.0524 24.3059 40.0524C24.3108 40.0524 24.3158 40.0521 24.3207 40.0521C28.1566 40.0809 31.9004 38.9208 35 36.743C34.9573 36.7344 34.9118 36.724 34.8685 36.7149C31.8788 36.094 27.3902 34.4686 23.393 32.1349Z" fill="#F04451"/>
<path d="M18 17.5C17.6094 17.5514 17.2026 17.618 16.788 17.6926C16.7197 17.7049 16.6533 17.7153 16.5846 17.7281C14.6011 18.0978 10.6706 19.1025 6.76112 20.4323C4.46646 21.2128 2.17901 22.1051 0.296762 23.0473C0.19667 23.5645 0 24.5808 0 24.5808L6.64663 26.8487C6.64663 26.8487 6.64961 26.8462 6.652 26.8443C7.47445 31.1124 9.90819 34.9181 13.4662 37.5C13.4618 37.4562 13.4584 37.4092 13.4543 37.3646C13.165 34.2639 13.474 29.2918 14.7307 24.7106C15.4695 22.0172 16.5346 19.4596 18 17.5Z" fill="#F04451"/>
<path d="M19.943 14.8604C22.8091 14.7583 25.6389 15.0103 28 15.8268C27.8334 15.4672 27.647 15.0967 27.4505 14.7211C27.4181 14.6593 27.3882 14.5987 27.3551 14.5365C26.4023 12.7434 24.2468 9.27216 21.778 5.919C20.329 3.9509 18.7723 2.0234 17.287 0.5C16.749 0.55976 15.692 0.677128 15.692 0.677128L15.4391 7.74251C15.4391 7.74251 15.4424 7.74462 15.4451 7.74631C11.4956 9.8221 8.4794 13.3057 7 17.5C7.0417 17.4826 7.08693 17.4652 7.12947 17.4478C10.0904 16.2357 15.0679 15.0342 19.943 14.8604Z" fill="#F04451"/>
<path d="M31.0211 15.2119C31.4747 16.2474 31.8744 17.3048 32.2184 18.3801C32.2311 18.4201 32.2439 18.46 32.2563 18.5H41C40.8349 17.8567 40.6317 17.2235 40.3915 16.6033C40.3293 16.4424 40.2656 16.2823 40.1987 16.1237C37.6869 10.1709 31.8757 5.89934 25 5.5C26.8416 7.55628 29.1922 11.0923 30.9125 14.9657C30.949 15.0477 30.9851 15.1298 31.0211 15.2119Z" fill="#F04451"/>
</svg>
